<?xml version="1.0" standalone="no"?>
<!DOCTYPE svg PUBLIC "-//W3C//DTD SVG 20010904//EN"
 "http://www.w3.org/TR/2001/REC-SVG-20010904/DTD/svg10.dtd">
<svg version="1.0" xmlns="http://www.w3.org/2000/svg"
 width="260.000000pt" height="260.000000pt" viewBox="0 0 260.000000 260.000000"
 preserveAspectRatio="xMidYMid meet">
<metadata>
Created by potrace 1.14, written by Peter Selinger 2001-2017
</metadata>
<g transform="translate(0.000000,260.000000) scale(0.100000,-0.100000)"
fill="#000000" stroke="none">
<path d="M1275 2531 c-54 -23 -75 -89 -44 -140 10 -17 23 -31 29 -31 5 0 9 -6
8 -12 -2 -8 11 -14 36 -16 33 -3 42 1 67 30 53 63 47 133 -16 162 -36 18 -50
19 -80 7z m63 -63 c32 -32 -8 -80 -48 -58 -34 18 -19 70 20 70 9 0 21 -5 28
-12z"/>
<path d="M1006 2344 c-3 -8 -16 -19 -28 -24 -17 -6 -18 -9 -6 -9 9 -1 23 -9
30 -19 12 -16 14 -16 33 3 l21 20 -23 21 c-17 18 -23 19 -27 8z"/>
<path d="M1585 2332 c-20 -17 -20 -17 2 -39 17 -17 24 -19 30 -9 5 7 17 18 28
24 18 10 18 11 2 12 -10 0 -20 7 -23 15 -8 19 -14 18 -39 -3z"/>
<path d="M1275 2299 c-10 -16 8 -25 47 -24 22 0 33 6 33 15 0 19 -70 26 -80 9z"/>
<path d="M1270 2236 c0 -15 8 -17 65 -20 11 0 20 6 20 14 0 10 -13 16 -42 18
-34 2 -43 0 -43 -12z"/>
<path d="M1145 2229 c-16 -5 -43 -11 -58 -14 -16 -3 -57 -19 -92 -34 -185 -84
-302 -219 -364 -421 -17 -56 -19 -86 -16 -225 2 -88 6 -178 9 -200 3 -22 8
-60 11 -85 3 -25 8 -63 11 -85 4 -34 21 -159 28 -203 4 -21 22 -33 40 -26 12
5 16 14 12 33 -3 14 -8 53 -11 86 -4 33 -8 69 -10 80 -1 11 -6 56 -10 100 -4
44 -9 91 -12 105 -2 14 -6 97 -9 185 -3 134 -1 170 15 220 33 111 72 176 151
256 84 85 177 138 296 168 61 15 69 20 69 41 0 28 -16 33 -60 19z"/>
<path d="M1417 2228 c-9 -29 6 -46 46 -53 62 -11 60 -11 128 -41 174 -75 298
-218 344 -393 17 -67 19 -236 4 -382 -22 -226 -20 -211 -38 -339 -10 -74 -6
-90 19 -90 20 0 26 13 35 75 3 23 7 52 10 65 3 14 7 50 10 80 3 30 8 66 10 80
2 14 7 57 11 95 3 39 8 86 10 105 6 64 5 234 -2 275 -17 108 -82 237 -162 322
-91 97 -195 158 -328 193 -92 24 -91 24 -97 8z"/>
<path d="M1270 2176 c0 -15 78 -28 86 -14 11 17 -9 28 -47 28 -27 0 -39 -4
-39 -14z"/>
<path d="M1288 2132 c-10 -2 -18 -10 -18 -18 0 -10 13 -14 45 -14 33 0 45 4
45 15 0 8 -3 15 -7 16 -39 4 -50 4 -65 1z"/>
<path d="M1274 2071 c-2 -2 -4 -10 -4 -18 0 -9 14 -13 45 -13 33 0 45 4 45 15
0 8 -4 16 -10 16 -28 4 -72 4 -76 0z"/>
<path d="M596 2043 c-4 -12 -15 -25 -26 -28 -16 -5 -16 -8 8 -33 24 -24 28
-25 36 -10 5 10 18 20 29 24 20 6 20 7 -3 19 -13 7 -27 21 -31 31 -6 18 -7 17
-13 -3z"/>
<path d="M2006 2042 c-4 -11 -15 -24 -25 -27 -17 -5 -16 -8 8 -34 23 -25 27
-27 35 -12 5 9 16 21 24 27 14 10 14 12 0 20 -8 5 -19 18 -25 28 -10 19 -11
19 -17 -2z"/>
<path d="M1283 2013 c-30 -11 -10 -28 32 -29 37 -1 45 2 43 15 -3 16 -48 24
-75 14z"/>
<path d="M1041 1953 c-14 -51 -14 -67 5 -111 l15 -37 14 32 c8 18 25 38 39 44
36 17 105 3 155 -30 l43 -29 42 30 c56 39 140 49 174 20 12 -10 22 -30 22 -43
0 -21 1 -22 16 -7 27 27 34 91 14 135 l-17 38 -13 -25 c-17 -31 -43 -51 -51
-39 -3 5 -34 11 -70 13 -35 2 -76 9 -91 16 -22 11 -34 11 -55 1 -14 -7 -56
-14 -92 -17 -36 -3 -69 -10 -72 -16 -6 -10 -49 37 -49 53 0 24 -20 4 -29 -28z
m290 -23 c29 -16 25 -58 -6 -66 -45 -11 -71 29 -39 60 18 19 20 19 45 6z"/>
<path d="M1709 1894 c-2 -70 -11 -91 -51 -108 -33 -14 -33 -14 -6 -15 32 -1
43 -19 53 -84 9 -58 13 -56 19 8 5 51 23 75 57 75 10 0 21 5 25 12 4 6 3 8 -3
5 -12 -7 -73 11 -74 21 0 4 -3 30 -6 57 -5 57 -13 72 -14 29z"/>
<path d="M902 1859 c-4 -45 -15 -62 -54 -75 -30 -11 -31 -13 -8 -13 39 -2 51
-15 57 -60 6 -43 23 -57 23 -18 0 47 12 68 43 74 l30 6 -34 16 c-30 14 -34 21
-37 59 -4 49 -17 56 -20 11z"/>
<path d="M465 1806 l-20 -21 28 -29 c20 -21 27 -24 27 -12 0 9 8 21 18 27 18
11 17 13 -5 35 -13 13 -25 24 -26 23 -1 -1 -11 -11 -22 -23z"/>
<path d="M1220 1802 c0 -18 13 -43 38 -71 l39 -44 -1 47 c-1 39 -6 52 -29 72
-36 31 -47 30 -47 -4z"/>
<path d="M1359 1803 l-24 -28 1 -315 c1 -173 3 -318 3 -322 1 -8 60 11 62 20
1 4 2 157 3 340 1 230 -2 332 -10 332 -5 0 -21 -12 -35 -27z"/>
<path d="M2102 1805 c-23 -23 -23 -23 -3 -30 13 -4 21 -15 21 -28 1 -21 2 -21
21 6 11 15 28 27 37 28 12 0 10 3 -6 9 -12 5 -25 16 -28 25 -8 19 -14 18 -42
-10z"/>
<path d="M1225 1405 c0 -265 2 -305 15 -305 44 1 45 6 46 285 l2 266 -25 30
c-14 16 -28 29 -31 29 -4 0 -7 -137 -7 -305z"/>
<path d="M1076 1681 c-15 -16 -15 -19 1 -33 16 -14 20 -14 35 1 16 16 16 18
-1 33 -18 15 -21 15 -35 -1z"/>
<path d="M1519 1681 c-14 -15 -14 -17 2 -32 15 -15 18 -15 32 1 14 17 14 20
-1 33 -15 13 -19 13 -33 -2z"/>
<path d="M450 1597 c-10 -21 -27 -36 -49 -43 l-35 -11 36 -12 c34 -11 57 -42
59 -79 0 -9 9 3 20 26 11 25 28 46 39 49 26 7 26 20 0 28 -18 6 -44 39 -45 57
-1 19 -12 12 -25 -15z"/>
<path d="M2136 1606 c-4 -15 -20 -35 -36 -44 -36 -21 -37 -28 -6 -36 16 -4 29
-18 37 -41 15 -40 24 -45 26 -14 2 28 28 56 61 64 l27 7 -35 11 c-24 8 -40 22
-51 46 l-16 34 -7 -27z"/>
<path d="M780 1602 c0 -7 -9 -16 -19 -20 -19 -7 -19 -8 2 -27 l22 -20 24 23
c19 17 20 22 8 22 -9 0 -21 8 -26 18 -6 10 -11 12 -11 4z"/>
<path d="M1830 1599 c0 -5 -9 -13 -19 -17 -19 -7 -19 -8 5 -29 13 -12 24 -17
24 -12 0 5 9 13 19 17 19 7 19 8 -5 29 -13 12 -24 17 -24 12z"/>
<path d="M992 1533 c-7 -13 -19 -23 -27 -23 -8 0 -15 -4 -15 -10 0 -5 7 -10
15 -10 8 0 19 -9 24 -19 10 -18 12 -18 40 7 l29 27 -23 8 c-13 5 -25 16 -27
25 -3 14 -6 13 -16 -5z"/>
<path d="M1606 1532 c-7 -19 -29 -28 -59 -23 -5 1 -6 -3 -2 -9 3 -6 10 -8 14
-6 13 8 51 -24 51 -42 1 -12 5 -10 15 8 7 14 24 28 37 31 l23 6 -27 11 c-14 6
-31 19 -36 28 -9 16 -10 15 -16 -4z"/>
<path d="M780 1390 c0 -5 -8 -10 -17 -10 -15 0 -14 -3 5 -22 15 -15 25 -19 30
-12 4 6 12 13 19 15 6 2 1 12 -13 22 -13 10 -24 13 -24 7z"/>
<path d="M1079 1383 c-10 -11 -9 -17 2 -28 12 -12 17 -11 35 4 l21 17 -23 11
c-18 8 -26 8 -35 -4z"/>
<path d="M1496 1381 c-14 -15 -14 -18 2 -28 13 -8 22 -7 34 1 16 11 15 14 -2
28 -17 15 -20 15 -34 -1z"/>
<path d="M1816 1384 c-20 -14 -20 -14 0 -28 17 -13 21 -12 37 1 9 9 16 17 15
17 -2 1 -10 7 -18 13 -11 9 -20 8 -34 -3z"/>
<path d="M1677 1331 c-10 -47 -23 -60 -69 -67 -21 -4 -36 -9 -33 -13 7 -6 12
-7 43 -10 31 -2 44 -18 57 -67 l12 -49 7 42 c9 48 34 76 71 76 36 0 31 14 -9
21 -40 8 -56 24 -65 69 l-7 32 -7 -34z"/>
<path d="M922 1323 c-3 -37 -20 -52 -73 -61 l-44 -8 42 -8 c49 -9 64 -24 80
-80 9 -34 11 -36 12 -14 2 47 22 79 55 86 17 3 34 5 39 4 4 -1 7 2 7 8 0 6
-11 10 -25 10 -31 0 -75 41 -75 70 0 30 -15 24 -18 -7z"/>
<path d="M445 1281 c-7 -13 134 -173 146 -165 7 4 -127 174 -137 174 -2 0 -5
-4 -9 -9z"/>
<path d="M2144 1267 c-96 -112 -115 -138 -112 -147 2 -6 16 1 30 17 64 66 118
128 118 135 0 18 -19 15 -36 -5z"/>
<path d="M324 1225 c-7 -18 4 -29 133 -137 48 -40 93 -78 98 -83 29 -30 54
-45 59 -37 5 9 -51 68 -139 148 -16 14 -50 45 -75 68 -59 55 -69 61 -76 41z"/>
<path d="M2214 1177 c-137 -122 -217 -204 -206 -211 6 -3 23 6 39 20 15 15 78
69 140 121 114 97 132 118 109 126 -8 3 -44 -22 -82 -56z"/>
<path d="M1440 1180 c0 -5 8 -13 17 -19 10 -5 16 -12 13 -14 -8 -8 -249 -103
-296 -117 -37 -11 -45 -10 -68 6 -32 24 -33 34 -1 35 14 1 30 3 35 4 6 1 13 3
16 4 3 0 -4 9 -17 20 l-23 18 32 17 c37 19 44 41 10 30 -61 -18 -131 -80 -173
-151 -13 -22 -33 -38 -65 -49 -45 -16 -53 -25 -88 -96 -2 -5 12 -8 31 -8 26 0
52 14 113 60 43 33 83 60 87 60 4 0 -6 -20 -23 -45 -17 -25 -28 -45 -25 -45 4
0 50 17 103 39 204 82 345 131 377 131 21 0 -52 -41 -303 -172 l-153 -80 -87
7 c-92 8 -761 13 -800 6 -16 -2 -20 -7 -13 -14 7 -7 174 -11 493 -12 l482 -2
149 74 c81 41 151 81 154 89 3 7 9 12 13 9 5 -3 11 -1 15 5 3 5 10 10 15 10 5
0 -14 -21 -43 -47 -28 -27 -57 -53 -64 -60 -7 -6 -25 -21 -39 -32 -15 -12 -25
-23 -23 -26 3 -2 31 4 64 14 51 16 71 30 142 102 45 46 84 81 87 79 2 -3 -4
-30 -15 -60 -10 -30 -19 -62 -19 -71 0 -10 -13 -21 -30 -28 -16 -5 -30 -8 -30
-5 0 10 -40 -18 -49 -35 -10 -17 11 -18 510 -16 386 1 522 4 531 13 7 7 8 12
3 13 -57 4 -319 8 -568 8 -273 1 -307 3 -294 16 12 11 37 14 101 13 47 -1 88
1 91 3 2 3 -7 21 -20 41 -16 24 -40 42 -70 54 -35 13 -52 27 -72 61 -14 24
-38 50 -55 59 -16 8 -36 31 -46 50 -10 23 -29 41 -50 50 -40 16 -62 18 -62 4z
m270 -278 c0 -5 -6 -9 -12 -10 -7 -1 -35 -4 -63 -8 -54 -7 -56 4 -3 16 46 11
78 12 78 2z"/>
<path d="M813 1121 c-8 -12 -7 -22 1 -33 12 -16 13 -16 27 0 12 15 12 19 -2
33 -15 15 -17 15 -26 0z"/>
<path d="M1780 1120 c-14 -14 -14 -17 0 -31 13 -14 16 -14 30 0 13 14 13 18 0
31 -13 13 -17 13 -30 0z"/>
<path d="M230 1101 c0 -5 44 -32 98 -60 53 -28 118 -63 144 -78 51 -28 79 -24
39 6 -32 24 -256 141 -270 141 -6 0 -11 -4 -11 -9z"/>
<path d="M2265 1057 c-138 -73 -194 -110 -173 -115 9 -2 34 8 56 22 22 14 85
48 141 76 92 46 122 70 89 70 -7 0 -58 -24 -113 -53z"/>
<path d="M204 879 c-2 -4 -1 -10 3 -12 9 -5 483 -12 566 -8 9 1 17 7 17 15 0
11 -50 13 -291 13 -159 -1 -292 -4 -295 -8z"/>
<path d="M1865 880 c-3 -5 0 -12 5 -15 14 -8 498 -5 553 4 5 0 6 5 3 9 -6 11
-554 13 -561 2z"/>
<path d="M320 735 c18 -19 20 -35 20 -148 0 -101 -3 -133 -16 -152 -20 -30
-24 -30 106 3 l105 27 3 42 3 41 -38 -19 c-20 -10 -49 -19 -63 -19 -24 0 -26
3 -22 31 4 29 7 31 38 27 34 -4 34 -4 34 39 0 42 -1 42 -26 33 -39 -15 -44
-13 -44 21 l0 31 54 -4 c48 -4 55 -2 60 15 11 45 -5 52 -123 53 l-111 1 20
-22z"/>
<path d="M2010 752 c0 -4 9 -13 20 -20 18 -11 20 -23 20 -126 0 -67 -4 -117
-10 -121 -17 -11 -3 -21 32 -23 19 -1 44 -4 57 -7 18 -3 20 -1 12 9 -6 7 -12
37 -12 65 -2 85 15 82 51 -8 37 -95 82 -141 149 -156 l35 -7 -28 33 c-16 18
-46 71 -69 117 -35 74 -38 85 -24 93 63 36 65 104 4 136 -32 16 -237 29 -237
15z m195 -83 c0 -9 -14 -15 -37 -17 -32 -3 -38 0 -38 17 0 11 8 21 18 23 25 6
57 -7 57 -23z"/>
<path d="M822 713 c-63 -53 -58 -149 9 -177 41 -17 64 -11 67 20 1 19 -3 24
-23 24 -59 0 -49 95 11 104 12 2 19 11 19 27 0 36 -42 37 -83 2z"/>
<path d="M989 737 c0 -1 -2 -13 -4 -27 -2 -14 -19 -60 -39 -102 l-35 -78 35 0
c27 0 34 4 34 19 0 23 11 31 50 37 22 4 31 0 40 -16 6 -11 9 -24 6 -28 -2 -4
13 -8 35 -8 22 0 38 2 36 5 -2 3 -9 21 -17 40 -7 19 -27 61 -44 95 -28 55 -34
61 -63 63 -18 1 -33 1 -34 0z m47 -104 c-11 -11 -19 6 -11 24 8 17 8 17 12 0
3 -10 2 -21 -1 -24z"/>
<path d="M1175 638 c0 -58 4 -98 10 -99 6 -1 42 -2 82 -3 65 -1 72 1 75 19 7
35 0 40 -53 36 l-51 -3 3 74 4 74 -35 0 -35 0 0 -98z"/>
<path d="M1375 732 c-1 -2 0 -17 4 -35 8 -38 7 -139 -1 -152 -4 -6 10 -10 30
-10 l37 1 0 89 c0 50 3 95 7 100 6 9 -68 16 -77 7z"/>
<path d="M1495 635 l0 -100 80 -3 c44 -1 94 2 110 6 56 15 65 81 14 97 l-21 7
21 15 c27 18 27 35 0 59 -17 15 -37 18 -112 19 l-92 1 0 -101z m155 46 c0 -21
-81 -24 -88 -3 -2 8 10 12 42 12 25 0 46 -4 46 -9z m14 -73 c26 -14 8 -27 -42
-31 -48 -4 -67 5 -59 26 7 17 71 21 101 5z"/>
<path d="M1765 665 c1 -39 5 -79 9 -90 10 -33 64 -59 123 -59 76 -1 87 13 93
124 l5 90 -36 0 -36 0 3 -67 c4 -75 -5 -93 -46 -93 -42 0 -52 20 -48 94 l3 64
-36 4 -35 3 1 -70z"/>
<path d="M570 723 c0 -3 18 -27 40 -53 l40 -48 -35 -53 c-20 -28 -38 -56 -40
-60 -3 -4 3 -6 12 -4 10 2 27 4 38 4 13 1 25 12 32 31 14 37 28 38 47 2 13
-24 19 -28 50 -24 20 2 36 6 36 8 0 2 -16 24 -35 50 -19 25 -32 51 -28 57 3 7
16 26 28 42 40 55 40 56 -4 53 -25 -1 -40 -6 -37 -13 2 -6 -5 -21 -15 -33
l-18 -23 -13 23 c-7 13 -12 27 -13 32 0 10 -85 18 -85 9z"/>
<path d="M935 470 l-30 -6 40 -38 c72 -68 168 -150 267 -225 89 -67 99 -72
117 -60 99 72 290 231 341 283 l44 46 -40 0 c-27 0 -49 -7 -65 -21 -13 -11
-35 -30 -49 -42 -38 -34 -98 -79 -177 -135 l-71 -51 -94 66 c-51 36 -113 82
-138 102 -95 77 -113 87 -145 81z"/>
<path d="M1060 470 c0 -31 129 -43 166 -15 10 8 17 15 14 16 -15 5 -180 3
-180 -1z"/>
<path d="M1385 471 c-3 -2 0 -10 6 -18 16 -18 136 -18 155 1 8 8 14 16 14 18
0 5 -170 5 -175 -1z"/>
<path d="M725 459 c-99 -12 -114 -15 -121 -22 -4 -4 54 -7 129 -7 127 0 157 6
125 26 -16 10 -62 11 -133 3z"/>
<path d="M1757 459 c-39 -23 -12 -29 125 -29 78 0 139 2 137 4 -4 4 -110 19
-204 30 -22 2 -48 0 -58 -5z"/>
<path d="M1296 404 c-4 -16 -18 -30 -36 -37 l-29 -11 31 -18 c16 -11 32 -28
35 -39 3 -10 10 -19 16 -19 6 0 7 3 4 6 -11 12 13 45 41 55 l26 10 -24 12
c-14 7 -30 23 -36 35 -17 34 -21 35 -28 6z"/>
<path d="M1135 400 c3 -5 19 -10 36 -10 16 0 29 5 29 10 0 6 -16 10 -36 10
-21 0 -33 -4 -29 -10z"/>
<path d="M1410 400 c0 -5 15 -10 34 -10 19 0 38 5 41 10 4 6 -10 10 -34 10
-23 0 -41 -4 -41 -10z"/>
<path d="M1960 368 c0 -9 4 -20 10 -23 5 -3 14 -20 19 -38 7 -28 9 -29 16 -12
3 11 13 32 21 48 13 23 13 27 1 27 -8 0 -18 -7 -21 -16 -5 -14 -9 -12 -26 7
-16 20 -19 21 -20 7z"/>
<path d="M466 353 c-4 -11 -1 -22 8 -29 20 -14 21 -25 1 -18 -8 4 -15 2 -15
-4 0 -17 39 -21 52 -5 10 13 8 19 -11 34 -18 15 -19 19 -7 19 9 0 16 5 16 10
0 17 -37 11 -44 -7z"/>
<path d="M530 360 c0 -6 7 -27 16 -48 14 -32 17 -34 23 -17 7 18 8 18 18 1 8
-14 12 -15 20 -4 18 23 33 78 22 78 -6 0 -13 -9 -16 -20 -3 -11 -10 -20 -15
-20 -6 0 -8 9 -5 20 4 15 0 20 -14 20 -16 0 -18 -5 -14 -27 l5 -28 -12 28
c-12 27 -28 37 -28 17z"/>
<path d="M655 350 c-15 -48 25 -81 64 -54 19 13 21 39 6 64 -12 19 -63 11 -70
-10z m58 -14 c8 -19 -15 -37 -32 -26 -17 10 -7 40 13 40 7 0 16 -6 19 -14z"/>
<path d="M759 363 c-5 -41 -5 -64 2 -75 7 -10 9 -9 9 5 0 9 5 17 11 17 7 0 18
-8 26 -17 13 -17 13 -17 11 2 -1 11 1 25 5 32 13 21 -4 43 -34 43 -16 0 -29
-3 -30 -7z m43 -25 c-9 -9 -15 -9 -24 0 -9 9 -7 12 12 12 19 0 21 -3 12 -12z"/>
<path d="M848 341 c-6 -41 3 -58 31 -56 63 5 58 84 -5 85 -16 0 -23 -7 -26
-29z m55 -5 c5 -13 -10 -36 -24 -36 -9 0 -18 37 -11 44 10 11 30 6 35 -8z"/>
<path d="M1699 368 c0 -2 -2 -20 -4 -40 -2 -27 1 -38 11 -38 8 0 14 5 14 10 0
6 6 10 14 10 20 0 37 25 30 44 -4 10 -18 16 -35 16 -16 0 -29 -1 -30 -2z m46
-28 c-3 -5 -13 -10 -21 -10 -8 0 -12 5 -9 10 3 6 13 10 21 10 8 0 12 -4 9 -10z"/>
<path d="M1784 330 c0 -22 3 -41 6 -41 53 -12 87 4 36 17 -17 4 -23 12 -22 31
1 15 -4 28 -10 30 -6 2 -10 -13 -10 -37z"/>
<path d="M1887 335 c-22 -47 -21 -58 3 -43 16 10 24 10 40 0 16 -10 20 -10 20
1 0 19 -30 77 -39 77 -4 0 -15 -16 -24 -35z"/>
<path d="M350 320 c0 -5 14 -10 30 -10 17 0 30 5 30 10 0 6 -13 10 -30 10 -16
0 -30 -4 -30 -10z"/>
<path d="M2080 320 c0 -6 38 -10 95 -10 57 0 95 4 95 10 0 6 -38 10 -95 10
-57 0 -95 -4 -95 -10z"/>
</g>
</svg>
