<?xml version="1.0" standalone="no"?>
<!DOCTYPE svg PUBLIC "-//W3C//DTD SVG 20010904//EN"
 "http://www.w3.org/TR/2001/REC-SVG-20010904/DTD/svg10.dtd">
<svg version="1.0" xmlns="http://www.w3.org/2000/svg"
 width="260.000000pt" height="260.000000pt" viewBox="0 0 260.000000 260.000000"
 preserveAspectRatio="xMidYMid meet">
<metadata>
Created by potrace 1.14, written by Peter Selinger 2001-2017
</metadata>
<g transform="translate(0.000000,260.000000) scale(0.100000,-0.100000)"
fill="#000000" stroke="none">
<path d="M0 1300 l0 -1300 1300 0 1300 0 0 1300 0 1300 -1300 0 -1300 0 0
-1300z m1383 1200 c36 -40 35 -76 -5 -128 -30 -39 -35 -42 -67 -36 -77 15
-120 114 -73 168 40 45 102 43 145 -4z m-348 -205 l-20 -20 -20 20 -20 20 20
20 20 20 20 -20 20 -20 -20 -20z m614 25 c13 -1 12 -3 -4 -12 -11 -6 -23 -17
-28 -24 -6 -10 -13 -8 -30 9 l-22 22 20 21 c19 20 21 20 34 2 7 -10 21 -18 30
-18z m-294 -30 c0 -11 -10 -14 -40 -12 -46 4 -55 10 -37 21 23 14 77 8 77 -9z
m0 -60 c0 -11 -10 -14 -40 -12 -46 4 -50 6 -40 22 10 17 80 8 80 -10z m-150
-19 c0 -22 -7 -27 -69 -42 -119 -30 -212 -83 -296 -168 -120 -121 -170 -245
-170 -422 0 -90 29 -421 50 -567 10 -70 7 -82 -16 -82 -27 0 -34 34 -76 370
-6 52 -12 167 -12 255 -1 142 2 168 22 230 70 212 246 375 468 435 84 23 99
22 99 -9z m293 14 c138 -33 292 -127 373 -228 46 -58 87 -135 115 -217 28 -81
26 -346 -5 -580 -37 -286 -32 -265 -61 -265 -29 0 -29 -23 0 230 31 263 37
493 15 574 -31 119 -99 226 -197 308 -56 47 -187 110 -260 125 -54 11 -58 14
-58 40 0 33 -3 32 78 13z m-140 -52 c2 -9 -10 -13 -42 -13 -43 0 -55 7 -39 24
12 11 76 2 81 -11z m2 -58 c0 -11 -12 -15 -45 -15 -42 0 -54 7 -38 23 3 4 24
7 45 7 27 0 38 -4 38 -15z m0 -60 c0 -12 -10 -15 -45 -13 -61 4 -61 28 0 28
33 0 45 -4 45 -15z m-718 -44 l23 -8 -22 -7 c-12 -4 -25 -17 -29 -29 l-7 -22
-10 21 c-5 12 -19 26 -31 31 l-21 10 22 7 c12 4 25 17 29 29 l7 22 8 -23 c5
-12 19 -26 31 -31z m1416 -2 c13 0 12 -3 -5 -11 -13 -6 -25 -19 -28 -28 -5
-16 -9 -15 -33 8 l-27 27 25 25 25 25 13 -22 c7 -13 20 -23 30 -24z m-700 -10
c2 -13 -6 -16 -42 -15 -51 1 -64 22 -18 29 42 7 57 3 60 -14z m-288 -18 c0
-19 42 -62 54 -53 6 5 41 12 78 15 38 4 77 11 88 17 15 8 32 7 65 -5 25 -8 67
-15 93 -15 27 0 53 -5 59 -11 9 -9 17 -3 34 26 l22 37 13 -23 c16 -29 18 -88
4 -123 -12 -33 -26 -33 -34 -1 -9 35 -41 48 -100 41 -33 -3 -64 -16 -92 -36
l-42 -30 -25 20 c-38 30 -91 50 -132 50 -40 0 -85 -36 -85 -67 -1 -17 -1 -17
-14 0 -8 10 -17 33 -20 52 -7 38 9 115 24 115 6 0 10 -4 10 -9z m-150 -129 c4
-41 9 -49 40 -64 28 -14 31 -17 13 -18 -33 0 -53 -27 -53 -70 0 -58 -17 -57
-22 1 -6 54 -17 68 -58 70 -23 0 -22 2 8 12 42 16 52 32 52 86 0 56 12 45 20
-17z m815 -50 c4 -4 23 -12 43 -18 32 -10 33 -12 11 -13 -41 -2 -58 -22 -67
-81 l-8 -55 -8 57 c-8 59 -17 73 -51 80 -17 3 -16 6 10 18 25 13 31 23 40 70
l10 55 6 -53 c4 -29 10 -56 14 -60z m-1222 4 c22 -22 23 -24 5 -35 -10 -6 -18
-18 -18 -27 0 -12 -7 -9 -27 12 l-28 29 20 21 c11 12 21 22 22 23 1 1 13 -10
26 -23z m753 -2 c28 -22 34 -33 34 -65 0 -22 -3 -39 -7 -39 -17 1 -73 80 -73
104 0 32 3 32 46 0z m136 -326 l-3 -326 -29 -11 -30 -10 0 329 0 329 27 21
c20 16 28 18 32 8 3 -7 5 -160 3 -340z m750 330 l23 -23 -23 -22 c-27 -27 -32
-28 -32 -9 0 8 -9 17 -19 21 -19 6 -19 7 2 29 12 13 23 24 24 25 1 1 12 -9 25
-21z m-862 -425 c0 -249 -1 -263 -19 -273 -11 -5 -24 -10 -29 -10 -15 0 -24
255 -16 442 l7 172 28 -34 29 -34 0 -263z m-179 268 c-14 -14 -18 -14 -32 -1
-14 14 -14 16 0 31 13 13 18 13 32 1 15 -13 15 -16 0 -31z m448 7 c-10 -4 -19
-12 -19 -18 0 -5 -8 -2 -18 8 -17 15 -17 18 -3 33 15 15 18 15 37 0 21 -15 21
-16 3 -23z m-1038 -105 c25 -7 24 -19 -1 -26 -11 -3 -28 -24 -39 -49 -14 -30
-20 -36 -20 -22 -1 30 -36 71 -68 79 l-28 7 35 11 c23 8 40 22 50 44 l15 31
18 -35 c10 -19 27 -38 38 -40z m1687 1 l33 -10 -33 -15 c-19 -8 -39 -28 -48
-47 l-16 -33 -12 34 c-7 21 -24 39 -44 50 -28 13 -30 16 -11 16 23 1 63 44 63
70 1 9 9 0 18 -19 12 -24 28 -38 50 -46z m-1405 -1 c-17 -17 -19 -17 -35 0
-17 16 -17 18 0 35 16 16 18 16 35 0 16 -17 16 -19 0 -35z m1050 0 c-17 -17
-19 -17 -35 0 -17 16 -17 18 0 35 16 16 18 16 35 0 16 -17 16 -19 0 -35z
m-813 -43 c11 0 20 -4 20 -10 0 -5 -6 -10 -14 -10 -8 0 -21 -9 -28 -19 -14
-20 -14 -20 -26 0 -7 10 -19 19 -27 19 -8 0 -15 5 -15 10 0 6 7 10 15 10 8 0
20 9 27 20 13 20 13 20 20 0 4 -11 17 -20 28 -20z m616 0 c8 0 14 -4 14 -10 0
-5 -7 -10 -15 -10 -8 0 -19 -9 -26 -21 l-11 -21 -14 21 c-9 12 -22 21 -30 21
-8 0 -14 5 -14 10 0 6 7 10 15 10 8 0 20 9 27 19 12 20 12 20 26 0 7 -10 20
-19 28 -19z m-837 -137 c3 -2 -4 -9 -14 -17 -14 -10 -23 -11 -37 -3 -16 11
-16 12 0 28 13 12 21 14 32 6 8 -6 17 -13 19 -14z m310 0 c3 -2 -4 -9 -14 -17
-16 -11 -21 -11 -32 0 -20 20 5 47 27 31 8 -6 17 -13 19 -14z m403 -19 c-12
-8 -21 -9 -34 -1 -16 10 -16 13 -2 28 14 16 17 16 34 1 17 -14 18 -17 2 -28z
m336 12 c-2 -1 -10 -7 -18 -13 -11 -9 -20 -8 -34 3 -20 14 -20 14 0 28 17 13
21 12 37 -1 9 -9 16 -17 15 -17z m-146 -88 c11 -10 34 -18 52 -19 l31 -1 -36
-12 c-50 -16 -66 -31 -74 -74 l-7 -37 -14 47 c-14 45 -17 49 -62 60 l-47 12
39 8 c51 11 64 22 72 67 l7 36 9 -35 c5 -19 18 -43 30 -52z m-746 -7 c14 -6
37 -11 52 -12 22 -1 18 -4 -19 -15 -47 -15 -69 -42 -69 -87 0 -18 -2 -19 -10
-7 -5 8 -10 24 -10 36 0 27 -27 50 -70 60 l-35 7 39 9 c49 10 66 24 66 53 0
37 15 39 23 2 5 -22 17 -38 33 -46z m-448 -65 c70 -83 85 -128 16 -51 -78 87
-106 125 -92 124 7 0 41 -33 76 -73z m1633 47 c-45 -61 -120 -138 -127 -131
-8 8 122 158 138 158 5 0 0 -12 -11 -27z m-1749 -80 c140 -128 213 -203 198
-202 -21 0 -284 231 -288 252 -6 30 15 19 90 -50z m1888 48 c0 -11 -11 -28
-24 -38 -13 -10 -78 -64 -145 -121 -128 -109 -164 -118 -58 -15 82 80 210 193
220 193 4 0 7 -9 7 -19z m-801 -42 c21 -7 38 -24 51 -49 11 -22 34 -47 51 -57
17 -10 39 -35 50 -55 14 -27 34 -45 75 -65 35 -17 64 -40 76 -60 l20 -33 -94
0 c-88 0 -118 -8 -118 -32 0 -4 145 -8 323 -8 536 1 547 1 547 -10 0 -7 -181
-10 -522 -10 -511 0 -521 0 -504 19 10 10 37 24 61 30 30 7 43 15 39 24 -3 8
0 27 7 43 16 42 28 94 21 94 -4 0 -43 -36 -87 -80 -70 -69 -88 -82 -144 -99
-74 -23 -78 -28 51 83 73 62 85 81 35 55 -12 -7 -25 -16 -28 -21 -3 -4 -68
-40 -144 -78 l-139 -70 -493 0 c-362 0 -493 3 -493 11 0 9 120 11 459 7 l460
-5 78 42 c159 84 329 178 348 192 19 14 17 14 -15 8 -50 -10 -185 -56 -327
-113 -68 -27 -123 -47 -123 -45 0 2 12 21 26 43 15 22 25 42 23 44 -2 3 -42
-24 -89 -59 -64 -48 -93 -65 -118 -65 l-32 0 20 41 c17 32 33 46 76 65 37 16
58 33 67 51 20 46 89 114 135 134 50 22 52 22 52 9 0 -5 -13 -16 -30 -25 -36
-19 -38 -29 -8 -42 20 -9 17 -11 -27 -18 l-50 -7 34 -28 33 -28 57 19 c31 11
70 25 86 33 17 7 67 28 113 46 83 34 94 43 67 54 -19 7 -20 26 -1 26 7 0 27
-5 45 -11z m-659 -89 c-13 -14 -16 -14 -26 -1 -8 11 -9 20 -1 32 9 15 11 15
26 0 14 -14 14 -18 1 -31z m970 0 c-13 -13 -17 -13 -30 0 -13 13 -13 17 0 30
13 13 17 13 30 0 13 -13 13 -17 0 -30z m-1441 -45 c134 -70 168 -91 159 -101
-3 -3 -41 14 -85 39 -43 24 -108 58 -145 76 -38 18 -68 37 -68 42 0 15 6 12
139 -56z m2021 57 c0 -4 -26 -20 -57 -36 -32 -15 -98 -50 -147 -78 -48 -27
-91 -47 -94 -44 -9 10 24 31 158 100 128 67 140 72 140 58z m-1603 -225 c-3
-9 -52 -13 -183 -15 -189 -3 -407 6 -400 16 2 4 136 8 296 9 228 2 291 0 287
-10z m1578 2 c116 -4 -96 -17 -296 -18 -158 -1 -189 1 -200 15 -11 14 9 15
212 10 123 -3 251 -6 284 -7z m-1835 -156 l0 -38 -55 3 -55 4 0 -32 c0 -30 1
-31 35 -24 35 6 35 6 35 -30 0 -34 -1 -36 -35 -36 -33 0 -35 -2 -35 -31 0 -31
1 -31 38 -24 20 3 47 13 60 21 20 13 22 13 22 -8 0 -59 -8 -65 -98 -87 -48
-11 -98 -23 -111 -27 -24 -7 -24 -7 -8 17 14 19 17 48 17 156 0 122 -2 134
-20 145 -11 7 -20 16 -20 20 0 5 52 8 115 8 l115 0 0 -37z m1716 14 c55 -28
60 -82 13 -121 l-31 -27 37 -77 c20 -42 50 -94 66 -114 35 -44 22 -50 -41 -18
-48 24 -81 67 -112 144 -34 85 -51 86 -46 2 l3 -66 -40 0 c-45 0 -74 13 -56
24 7 5 11 49 11 122 0 103 -2 115 -20 126 -11 7 -20 17 -20 22 0 15 202 1 236
-17z m-1341 -27 c0 -18 -6 -26 -23 -28 -57 -8 -63 -102 -7 -102 22 0 26 -4 23
-22 -5 -36 -60 -37 -94 -3 -23 23 -26 32 -22 76 7 68 49 112 103 106 14 -1 20
-9 20 -27z m181 -36 c17 -34 37 -76 44 -95 8 -19 15 -36 17 -39 2 -3 -14 -5
-36 -5 -21 -1 -38 4 -38 10 0 37 -4 45 -29 45 -36 0 -64 -17 -64 -40 0 -16 -7
-20 -34 -20 l-35 0 40 86 c22 48 37 94 34 104 -5 14 1 17 32 16 36 -1 40 -4
69 -62z m156 -10 l-4 -76 51 3 c50 4 51 3 51 -23 l0 -28 -82 0 -83 0 0 100 0
100 35 0 35 0 -3 -76z m203 -24 l0 -100 -32 0 -33 0 0 84 c0 46 -3 91 -6 100
-5 13 1 16 32 16 l39 0 0 -100z m234 87 c13 -6 29 -20 35 -30 9 -15 7 -22 -12
-37 -22 -18 -22 -19 -2 -25 29 -9 43 -40 30 -65 -16 -31 -51 -40 -148 -40
l-87 0 0 105 0 105 80 0 c44 0 91 -6 104 -13z m-1018 -30 c20 -41 31 -41 44 1
8 29 13 32 48 32 42 0 42 1 -5 -64 -29 -40 -29 -42 7 -91 39 -55 39 -55 -3
-55 -32 0 -41 5 -50 25 -15 33 -31 32 -45 -4 -8 -23 -18 -30 -46 -34 -20 -2
-37 -3 -38 -3 -1 1 16 28 38 59 l41 58 -41 49 c-22 27 -41 51 -41 54 0 3 17 6
38 6 32 0 39 -5 53 -33z m1171 -32 c-4 -75 6 -95 48 -95 42 0 53 21 48 95 l-4
65 36 0 35 0 -5 -87 c-3 -49 -9 -94 -13 -101 -27 -41 -131 -37 -178 7 -25 23
-28 34 -31 104 l-3 77 35 0 35 0 -3 -65z m-792 -245 c36 -28 111 -84 168 -125
l103 -76 72 52 c40 28 113 85 163 125 70 57 99 74 123 74 17 0 31 -4 31 -8 0
-15 -117 -122 -249 -226 l-134 -106 -26 17 c-66 43 -239 182 -309 249 l-77 73
35 1 c27 0 50 -12 100 -50z m192 38 c-19 -19 -133 -22 -157 -4 -18 14 -13 15
75 16 73 0 91 -3 82 -12z m312 -3 c-25 -19 -124 -20 -150 0 -17 13 -10 14 75
15 86 0 93 -1 75 -15z m-690 -1 c43 -16 4 -24 -121 -24 -75 0 -134 2 -131 5
15 15 222 30 252 19z m1116 -14 c25 -6 -4 -8 -99 -9 -122 -1 -132 0 -120 15
11 14 27 15 99 9 47 -3 101 -10 120 -15z m-646 -42 c6 -12 22 -28 36 -35 l24
-12 -27 -10 c-15 -6 -32 -23 -38 -38 l-11 -28 -10 26 c-5 16 -22 32 -39 40
l-31 12 31 13 c19 8 33 23 37 39 7 28 11 27 28 -7z m-124 2 c0 -5 -13 -10 -29
-10 -17 0 -33 5 -36 10 -4 6 8 10 29 10 20 0 36 -4 36 -10z m280 0 c0 -5 -13
-10 -29 -10 -17 0 -33 5 -36 10 -4 6 8 10 29 10 20 0 36 -4 36 -10z m-970 -40
c0 -5 -7 -10 -16 -10 -12 0 -11 -5 7 -20 23 -19 23 -21 6 -34 -20 -15 -47 -11
-47 6 0 6 7 8 15 4 20 -7 19 4 -2 19 -21 16 -10 45 17 45 11 0 20 -4 20 -10z
m48 -17 l12 -28 -4 28 c-2 18 1 27 10 27 8 0 14 -9 14 -20 0 -11 4 -20 9 -20
5 0 11 9 14 20 3 11 10 20 16 20 8 0 6 -13 -4 -37 -19 -46 -24 -51 -34 -34 -6
9 -11 10 -15 2 -12 -19 -24 -12 -35 20 -13 38 -14 49 -3 49 5 0 13 -12 20 -27z
m172 7 c12 -22 0 -55 -22 -63 -39 -13 -74 37 -48 68 18 21 57 19 70 -5z m90 5
c10 -11 10 -19 2 -27 -6 -6 -8 -17 -5 -24 3 -8 0 -14 -6 -14 -6 0 -11 5 -11
10 0 17 -28 11 -33 -7 -3 -10 -5 3 -6 30 -1 43 1 47 23 47 13 0 29 -7 36 -15z
m84 9 c10 -4 16 -18 16 -35 0 -22 -6 -32 -26 -39 -35 -14 -44 -6 -44 41 0 40
13 49 54 33z m860 -10 c7 -19 -10 -44 -30 -44 -7 0 -18 -8 -23 -17 -8 -14 -10
-8 -11 30 0 45 1 47 29 47 17 0 31 -6 35 -16z m39 -19 c2 -22 10 -31 25 -33
35 -5 25 -24 -10 -20 -28 3 -34 7 -36 31 -3 28 5 64 13 56 2 -3 5 -18 8 -34z
m132 -1 c20 -48 19 -57 -5 -42 -16 10 -24 10 -40 0 -11 -7 -20 -8 -20 -2 0 16
33 80 42 80 4 0 15 -16 23 -36z m54 24 c11 -10 14 -10 18 0 3 6 11 12 19 12
13 0 13 -3 0 -27 -8 -16 -18 -37 -21 -48 -7 -17 -9 -16 -16 12 -5 18 -14 35
-19 38 -12 7 -13 25 -2 25 4 0 14 -6 21 -12z m-1579 -38 c0 -5 -13 -10 -30
-10 -16 0 -30 5 -30 10 0 6 14 10 30 10 17 0 30 -4 30 -10z m1860 0 c0 -6 -38
-10 -95 -10 -57 0 -95 4 -95 10 0 6 38 10 95 10 57 0 95 -4 95 -10z"/>
<path d="M1282 2468 c-32 -32 2 -79 43 -60 39 18 27 72 -15 72 -9 0 -21 -5
-28 -12z"/>
<path d="M1286 1924 c-20 -19 -20 -38 -1 -54 23 -19 65 -4 65 23 0 43 -35 60
-64 31z"/>
<path d="M1611 894 c-19 -8 -32 -17 -28 -20 8 -8 127 17 127 27 0 14 -62 10
-99 -7z"/>
<path d="M2130 670 c0 -18 5 -21 38 -18 25 2 37 8 37 18 0 10 -12 16 -37 18
-33 3 -38 0 -38 -18z"/>
<path d="M1025 657 c-8 -19 -2 -31 13 -26 5 2 6 13 2 24 -7 19 -8 19 -15 2z"/>
<path d="M1560 680 c0 -16 27 -23 65 -16 52 10 42 26 -15 26 -28 0 -50 -5 -50
-10z"/>
<path d="M1560 600 c0 -18 7 -20 54 -20 30 0 57 4 61 9 9 15 -29 31 -74 31
-34 0 -41 -3 -41 -20z"/>
<path d="M673 334 c-8 -22 18 -37 36 -20 7 8 10 19 7 25 -10 16 -36 13 -43 -5z"/>
<path d="M778 338 c9 -9 15 -9 24 0 9 9 7 12 -12 12 -19 0 -21 -3 -12 -12z"/>
<path d="M870 324 c0 -31 23 -28 28 4 2 15 -2 22 -12 22 -11 0 -16 -9 -16 -26z"/>
<path d="M1720 340 c0 -5 7 -10 15 -10 8 0 15 5 15 10 0 6 -7 10 -15 10 -8 0
-15 -4 -15 -10z"/>
</g>
</svg>
